<?xml version="1.0" encoding="UTF-8"?>
<svg width="85px" height="32px" viewBox="0 0 85 32" version="1.1" xmlns="http://www.w3.org/2000/svg" xmlns:xlink="http://www.w3.org/1999/xlink">
    <!-- Generator: Sketch 52.2 (67145) - http://www.bohemiancoding.com/sketch -->
    <title>Logo</title>
    <desc>Created with Sketch.</desc>
    <g id="Symbols" stroke="none" strokeWidth="1" fill="none" fillRule="evenodd">
        <g id="UI/Headers/Webinars" transform="translate(-101.000000, -797.000000)">
            <g id="Logo" transform="translate(101.000000, 797.000000)">
                <path d="M4,3.55271368e-15 L81,3.55271368e-15 C83.209139,3.14690143e-15 85,1.790861 85,4 L85,28 C85,30.209139 83.209139,32 81,32 L4,32 C1.790861,32 -6.83488586e-15,30.209139 -7.10542736e-15,28 L-7.10542736e-15,4 C-7.37596886e-15,1.790861 1.790861,1.73807988e-15 4,1.33226763e-15 Z" id="Rectangle-Copy-18" fill="#58C162"></path>
                <g id="lesschurn-white" transform="translate(5.000000, 10.000000)">
                    <polygon id="Path" fill="#000000" points="10.3972603 0 10.3972603 4.62729313 7.29457712 6.41569027 10.3972603 8.18127964 10.3972603 12.760274 0 6.37946617"></polygon>
                    <path d="M21.2913969,0.47260274 C24.1358054,0.47260274 25.4282318,2.32663075 25.4282318,2.32663075 L23.7063345,3.93649588 C23.1155323,3.19065535 22.2102599,2.76558931 21.2606248,2.78812542 C19.3540952,2.78812542 17.9546355,4.34701148 17.9546355,6.38080776 C17.9546355,8.41460404 19.3540952,9.99093032 21.2606248,9.99093032 C22.290213,9.99385914 23.2580577,9.49888094 23.8601948,8.66145003 L25.5205479,10.2364347 C25.5205479,10.2364347 24.1826324,12.2876712 21.2151357,12.2876712 C18.0041384,12.2876712 15.5958904,9.73871811 15.5958904,6.43044527 C15.5958904,3.12217243 18.0803996,0.47260274 21.2913969,0.47260274 Z" id="Path" fill="#FFFFFF"></path>
                    <polygon id="Path" fill="#FFFFFF" points="33.9351949 7.03538893 29.3962065 7.03538893 29.3962065 11.8150685 26.9383562 11.8150685 26.9383562 0.47260274 29.4027924 0.47260274 29.4027924 4.83233817 33.9417808 4.83233817 33.9417808 0.47260274 36.390411 0.47260274 36.390411 11.8150685 33.9351949 11.8150685"></polygon>
                    <path d="M47.260274,0.945205479 L47.260274,7.49546639 C47.260274,10.3689607 45.3052313,12.2876712 42.5013943,12.2876712 C39.6975574,12.2876712 37.8082192,10.4512471 37.8082192,7.57514055 L37.8082192,0.945205479 L40.2513521,0.945205479 L40.2513521,7.49546639 C40.2513521,9.04454105 41.1966917,10.0515702 42.5831897,10.0515702 C43.9696877,10.0515702 44.9002773,9.04454105 44.9002773,7.49546639 L44.9002773,0.945205479 L47.260274,0.945205479 Z" id="Path" fill="#FFFFFF"></path>
                    <path d="M48.6780822,0.47260274 L53.467646,0.47260274 C55.9482696,0.47260274 57.6340123,1.66445553 57.6340123,3.83760046 C57.6340123,5.45852026 56.7512617,6.38021975 55.2628875,6.91390495 L58.130137,11.8137442 L55.2980353,11.8137442 L52.7511716,7.28867644 L51.207372,7.28867644 L51.207372,11.8150685 L48.6780822,11.8150685 L48.6780822,0.47260274 Z M51.207372,2.56231797 L51.207372,5.24266248 L53.1540195,5.24266248 C54.3936554,5.24266248 55.1209445,4.9778063 55.1209445,3.96737999 C55.1209445,2.95695367 54.3936554,2.56231797 53.1540195,2.56231797 L51.207372,2.56231797 Z" id="Shape" fill="#FFFFFF" fillRule="nonzero"></path>
                    <polygon id="Path" fill="#FFFFFF" points="61.5120391 4.16731624 61.5120391 11.8150685 59.0753425 11.8150685 59.0753425 0.47260274 62.0403021 0.47260274 66.561966 7.92561749 66.561966 0.47260274 69 0.47260274 69 11.8150685 66.1821515 11.8150685"></polygon>
                </g>
            </g>
        </g>
    </g>
</svg>