<?xml version="1.0" encoding="UTF-8"?>
<svg width="28px" height="24px" viewBox="0 0 28 24" version="1.1" xmlns="http://www.w3.org/2000/svg" xmlns:xlink="http://www.w3.org/1999/xlink">
    <!-- Generator: Sketch 52.2 (67145) - http://www.bohemiancoding.com/sketch -->
    <title>“</title>
    <desc>Created with Sketch.</desc>
    <g id="Symbols" stroke="none" strokeWidth="1" fill="none" fillRule="evenodd">
        <g id="UI/Sections/Trust/Testimonial/Commas" transform="translate(-705.000000, -428.000000)" fill="#00D09C">
            <path d="M718,452 L705,452 L705,442.147059 C705,438.51959 705.767042,435.656873 707.301149,433.558824 C708.835257,431.460774 711.465115,429.607851 715.190805,428 L718,433.235294 C715.708801,434.294123 714.124909,435.348034 713.248276,436.397059 C712.371643,437.446084 711.883525,438.686267 711.783908,440.117647 L718,440.117647 L718,452 Z M733,452 L720,452 L720,442.147059 C720,438.51959 720.767042,435.656873 722.301149,433.558824 C723.835257,431.460774 726.465115,429.607851 730.190805,428 L733,433.235294 C730.708801,434.294123 729.124909,435.348034 728.248276,436.397059 C727.371643,437.446084 726.883525,438.686267 726.783908,440.117647 L733,440.117647 L733,452 Z" id="“"></path>
        </g>
    </g>
</svg>