<?xml version="1.0" encoding="UTF-8"?>
<svg width="687px" height="470px" viewBox="0 0 687 470" version="1.1" xmlns="http://www.w3.org/2000/svg" xmlns:xlink="http://www.w3.org/1999/xlink">
    <!-- Generator: Sketch 52.2 (67145) - http://www.bohemiancoding.com/sketch -->
    <title>Dummy Illustration</title>
    <desc>Created with Sketch.</desc>
    <g id="Audience-Pages" stroke="none" strokeWidth="1" fill="none" fillRule="evenodd">
        <g id="Agency" transform="translate(-703.000000, -198.000000)">
            <g id="Dummy-Illustration" transform="translate(705.000000, 198.000000)">
                <path d="M105,434.5 C134.823376,434.5 159,409.651804 159,379 C159,348.348196 134.823376,323.5 105,323.5 C90.6985247,323.5 77.6955641,329.214035 68.0344761,338.541988 C57.5489527,348.665948 51,363.046935 51,379 C51,409.651804 75.1766235,434.5 105,434.5 Z" id="Oval-Copy" fill="#00D09C"></path>
                <g id="infinity-(1)-copy" transform="translate(370.000000, 263.000000) scale(1, -1) translate(-370.000000, -263.000000) translate(85.000000, 137.500000)" fill="#FFFFFF" stroke="#4865FF" stroke-linecap="round" stroke-opacity="0.511265851" strokeWidth="2">
                    <path d="M275.651777,118.950914 C236.367422,175.129545 199.271777,228.181818 125.4,228.181818 C68.8330664,228.181818 22.8,182.112043 22.8,125.5 C22.8,68.8879572 68.8330664,22.8181818 125.4,22.8181818 C184.497422,22.8181818 219.108223,56.771369 247.745156,93.5088645 C251.598223,98.4145508 258.757734,99.3727362 263.727422,95.4943137 C268.697109,91.6158913 269.586621,84.4272727 265.711289,79.4536222 C235.090488,40.1836204 194.461289,0.00111416903 125.4,0.00111416903 C56.2474219,0 0,56.3156738 0,125.5 C0,194.684326 56.2474219,251 125.4,251 C211.128223,251 253.445156,190.531818 294.348223,132.049086 C333.632578,75.8704545 370.728223,22.8181818 444.6,22.8181818 C501.166934,22.8181818 547.2,68.8879572 547.2,125.5 C547.2,182.112043 501.166934,228.181818 444.6,228.181818 C385.502578,228.181818 350.891777,194.228631 322.254844,157.491135 C318.356133,152.539768 311.22,151.627264 306.271465,155.505686 C301.300664,159.385223 300.412266,166.572727 304.287598,171.546378 C334.908398,210.81638 375.537598,250.998886 444.598887,250.998886 C513.752578,251 570,194.684326 570,125.5 C570,56.3156738 513.752578,0 444.6,0 C358.871777,0 316.554844,60.4681818 275.651777,118.950914 Z" id="Path"></path>
                </g>
                <path d="M140,94 L248.288304,94" id="Path-2-Copy-5" stroke-opacity="0.508973053" stroke="#4865FF" strokeWidth="3" stroke-linecap="round" transform="translate(194.144152, 94.000000) scale(-1, 1) translate(-194.144152, -94.000000) "></path>
                <path d="M575,468 L683.288304,468" id="Path-2-Copy-6" stroke-opacity="0.508973053" stroke="#4865FF" strokeWidth="3" stroke-linecap="round" transform="translate(629.144152, 468.000000) scale(-1, 1) translate(-629.144152, -468.000000) "></path>
                <path d="M0,58 L195,58" id="Path-2-Copy-4" stroke-opacity="0.246405118" stroke="#4865FF" strokeWidth="3" stroke-linecap="round" transform="translate(97.500000, 58.000000) scale(-1, 1) translate(-97.500000, -58.000000) "></path>
                <path d="M435,432 L630,432" id="Path-2-Copy-7" stroke-opacity="0.246405118" stroke="#4865FF" strokeWidth="3" stroke-linecap="round" transform="translate(532.500000, 432.000000) scale(-1, 1) translate(-532.500000, -432.000000) "></path>
                <ellipse id="Oval" fill="#FC4259" cx="248" cy="32.5" rx="31" ry="32"></ellipse>
                <ellipse id="Oval-Copy-2" fill="#FFC206" cx="566" cy="138" rx="19" ry="19.5"></ellipse>
            </g>
        </g>
    </g>
</svg>