<?xml version="1.0" encoding="UTF-8"?>
<svg width="32px" height="32px" viewBox="0 0 32 32" version="1.1" xmlns="http://www.w3.org/2000/svg" xmlns:xlink="http://www.w3.org/1999/xlink">
    <!-- Generator: Sketch 52.2 (67145) - http://www.bohemiancoding.com/sketch -->
    <title>Group 7</title>
    <desc>Created with Sketch.</desc>
    <g id="Symbols" stroke="none" strokeWidth="1" fill="none" fill-rule="evenodd">
        <g id="UI/Topbars/Full-Light" transform="translate(-80.000000, -24.000000)" fill="#4865FF">
            <g id="Group-2" transform="translate(72.000000, 16.000000)">
                <g id="Group-7" transform="translate(8.000000, 8.000000)">
                    <path d="M14.0952381,3.80952381 C21.8798231,3.80952381 28.1904762,10.1201769 28.1904762,17.9047619 C28.1904762,25.6893469 21.8798231,32 14.0952381,32 L0,32 L0,17.9047619 C-9.53336716e-16,10.1201769 6.31065305,3.80952381 14.0952381,3.80952381 Z M14.0952381,22.8571429 C16.8303626,22.8571429 19.047619,20.6398864 19.047619,17.9047619 C19.047619,15.1696374 16.8303626,12.952381 14.0952381,12.952381 C11.3601136,12.952381 9.14285714,15.1696374 9.14285714,17.9047619 C9.14285714,20.6398864 11.3601136,22.8571429 14.0952381,22.8571429 Z" id="Combined-Shape"></path>
                    <circle id="Oval-Copy-3" cx="28.5714286" cy="3.42857143" r="3.42857143"></circle>
                </g>
            </g>
        </g>
    </g>
</svg>