<?xml version="1.0" encoding="UTF-8"?>
<svg width="66px" height="65px" viewBox="0 0 66 65" version="1.1" xmlns="http://www.w3.org/2000/svg" xmlns:xlink="http://www.w3.org/1999/xlink">
    <!-- Generator: Sketch 53.2 (72643) - https://sketchapp.com -->
    <title>Group 9 Copy 2</title>
    <desc>Created with Sketch.</desc>
    <g id="CTA-Flow" stroke="none" strokeWidth="1" fill="none" fill-rule="evenodd">
        <g id="Group-9-Copy-2" transform="translate(0.000000, 1.000000)">
            <g id="Group-8" transform="translate(31.266010, 0.000000)">
                <path d="M1.76108374,10.4558121 C1.42594969,10.4576948 1.09256037,10.4668223 0.761069428,10.4830437 L0.761083744,2.38028803 L1.76108374,2.38028803 L1.76108374,10.4558121 Z M1.76108374,54.4946829 L1.76108374,60.9860486 L0.761083744,60.9860486 L0.761083744,54.4674521 C1.09256037,54.4836727 1.42594969,54.4928003 1.76108374,54.4946829 Z" id="Combined-Shape" fill="#4865FF" fill-rule="nonzero"></path>
                <ellipse id="Oval" stroke="#4865FF" cx="1.26108374" cy="62.1062106" rx="1.26108374" ry="1.26012601"></ellipse>
                <ellipse id="Oval-Copy" stroke="#4865FF" cx="1.26108374" cy="1.26012601" rx="1.26108374" ry="1.26012601"></ellipse>
            </g>
            <g id="Group-8-Copy" opacity="0.2" transform="translate(32.211823, 0.633663)" fill="#4865FF">
                <path d="M1.76108374,9.83611584 C1.4905227,9.82658717 1.21873818,9.82178218 0.945812808,9.82178218 C0.884177954,9.82178218 0.822601282,9.82202723 0.761083744,9.8225164 L0.761083744,2.38028803 L1.76108374,2.38028803 L1.76108374,9.83611584 Z M1.76108374,53.8470525 L1.76108374,60.9860486 L0.761083744,60.9860486 L0.761083744,53.8606519 C0.822601282,53.8611411 0.884177954,53.8613861 0.945812808,53.8613861 C1.21873818,53.8613861 1.4905227,53.8565811 1.76108374,53.8470525 Z" id="Combined-Shape" fill-rule="nonzero"></path>
                <ellipse id="Oval" cx="1.26108374" cy="62.1062106" rx="1.26108374" ry="1.26012601"></ellipse>
                <ellipse id="Oval-Copy" cx="1.26108374" cy="1.26012601" rx="1.26108374" ry="1.26012601"></ellipse>
            </g>
            <g id="Group-8" transform="translate(32.210262, 31.922085) rotate(90.000000) translate(-32.210262, -31.922085) translate(30.710262, -0.077915)">
                <path d="M1.76108374,8.6703189 C1.4258908,8.67474848 1.09250424,8.68679149 0.761083744,8.70628559 L0.761083744,2.38028803 L1.76108374,2.38028803 L1.76108374,8.6703189 Z M1.76108374,53.434934 L1.76108374,60.9860486 L0.761083744,60.9860486 L0.761083744,53.3989673 C1.09250424,53.4184614 1.4258908,53.4305044 1.76108374,53.434934 Z" id="Combined-Shape" fill="#4865FF" fill-rule="nonzero"></path>
                <ellipse id="Oval" stroke="#4865FF" cx="1.26108374" cy="62.1062106" rx="1.26108374" ry="1.26012601"></ellipse>
                <ellipse id="Oval-Copy" stroke="#4865FF" cx="1.26108374" cy="1.26012601" rx="1.26108374" ry="1.26012601"></ellipse>
            </g>
            <g id="Group-8-Copy-2" opacity="0.2" transform="translate(33.156075, 32.872580) rotate(90.000000) translate(-33.156075, -32.872580) translate(31.656075, 0.872580)" fill="#4865FF">
                <path d="M1.76108374,9.624018 C1.54239692,9.61748974 1.32291002,9.6142028 1.1026679,9.6142028 C0.988601866,9.6142028 0.874738402,9.61508447 0.761083744,9.61684146 L0.761083744,2.38028803 L1.76108374,2.38028803 L1.76108374,9.624018 Z M1.76108374,54.3728605 L1.76108374,60.9860486 L0.761083744,60.9860486 L0.761083744,54.380037 C0.874738402,54.381794 0.988601866,54.3826757 1.1026679,54.3826757 C1.32291002,54.3826757 1.54239692,54.3793888 1.76108374,54.3728605 Z" id="Combined-Shape" fill-rule="nonzero"></path>
                <ellipse id="Oval" cx="1.26108374" cy="62.1062106" rx="1.26108374" ry="1.26012601"></ellipse>
                <ellipse id="Oval-Copy" cx="1.26108374" cy="1.26012601" rx="1.26108374" ry="1.26012601"></ellipse>
            </g>
            <ellipse id="Oval" stroke="#4865FF" cx="33.1576355" cy="32.1584158" rx="18.6009852" ry="18.5346535"></ellipse>
            <ellipse id="Oval" stroke="#4865FF" opacity="0.2" cx="34.1034483" cy="33.1089109" rx="18.6009852" ry="18.5346535"></ellipse>
            <g id="Group-3-Copy-2" transform="translate(24.330049, 20.910891)" stroke="#4865FF">
                <g id="Group-2">
                    <ellipse id="Oval" cx="8.19704433" cy="8.37378283" rx="8.19704433" ry="8.37378283"></ellipse>
                    <ellipse id="Oval" cx="8.19704433" cy="8.37378283" rx="3.57307061" ry="3.65011047"></ellipse>
                    <path d="M0.786266595,8.87378283 L8.19704433,24.698354 L15.6078221,8.87378283 L0.786266595,8.87378283 Z" id="Rectangle"></path>
                </g>
            </g>
            <g id="Group-3-Copy-3" opacity="0.2" transform="translate(25.275862, 21.544554)" fill="#4865FF">
                <path d="M3.05360793,14.8942909 C1.19126509,13.359291 8.17124146e-14,11.0086539 8.17124146e-14,8.37378283 C8.17124146e-14,3.74907028 3.66994176,-3.19744231e-14 8.19704433,-3.19744231e-14 C12.7241469,-3.19744231e-14 16.3940887,3.74907028 16.3940887,8.37378283 C16.3940887,11.0086539 15.2028236,13.359291 13.3404807,14.8942909 L8.19704433,25.8773048 L3.05360793,14.8942909 Z M7.70025377,12.0238933 C9.67360618,12.0238933 11.2733244,10.3896832 11.2733244,8.37378283 C11.2733244,6.35788249 9.67360618,4.72367237 7.70025377,4.72367237 C5.72690136,4.72367237 4.12718316,6.35788249 4.12718316,8.37378283 C4.12718316,10.3896832 5.72690136,12.0238933 7.70025377,12.0238933 Z" id="Combined-Shape"></path>
            </g>
        </g>
    </g>
</svg>