<?xml version="1.0" encoding="UTF-8"?>
<svg width="64px" height="63px" viewBox="0 0 64 63" version="1.1" xmlns="http://www.w3.org/2000/svg" xmlns:xlink="http://www.w3.org/1999/xlink">
    <!-- Generator: Sketch 53.2 (72643) - https://sketchapp.com -->
    <title>Group 6</title>
    <desc>Created with Sketch.</desc>
    <g id="CTA-Flow" stroke="none" strokeWidth="1" fill="none" fillRule="evenodd">
        <g id="Desktop-HD-Copy-14" transform="translate(-687.000000, -328.000000)">
            <g id="Group-6" transform="translate(688.000000, 328.000000)">
                <g id="Front" transform="translate(11.815385, 0.507937)">
                    <g id="Group">
                        <g id="Group-5" stroke="#4865FF">
                            <ellipse id="Oval" cx="16.6314618" cy="17.1406119" rx="16.6314618" ry="17.1406119"></ellipse>
                            <ellipse id="Oval" cx="16.6314618" cy="17.1406119" rx="7.24961157" ry="7.47154879"></ellipse>
                            <path d="M0.783340784,17.6406119 L16.6314618,51.7817057 L32.4795829,17.6406119 L0.783340784,17.6406119 Z" id="Rectangle"></path>
                        </g>
                        <g id="Group-5-Copy" opacity="0.19687035" transform="translate(0.707722, 1.498024)" fill="#4865FF">
                            <path d="M27.0672803,30.4876858 L16.6314618,52.9692314 L6.19564341,30.4876858 C2.41702729,27.3456366 -1.07291953e-12,22.5340289 -1.07291953e-12,17.1406119 C-1.07291953e-12,7.67411336 7.4461591,3.69482223e-13 16.6314618,3.69482223e-13 C25.8167646,3.69482223e-13 33.2629237,7.67411336 33.2629237,17.1406119 C33.2629237,22.5340289 30.8458964,27.3456366 27.0672803,30.4876858 Z M16.6314618,24.6121607 C20.6353117,24.6121607 23.8810734,21.2670344 23.8810734,17.1406119 C23.8810734,13.0141895 20.6353117,9.66906314 16.6314618,9.66906314 C12.6276119,9.66906314 9.38185026,13.0141895 9.38185026,17.1406119 C9.38185026,21.2670344 12.6276119,24.6121607 16.6314618,24.6121607 Z" id="Combined-Shape"></path>
                        </g>
                    </g>
                    <g id="Shadow" transform="translate(8.636605, 58.323063)">
                        <ellipse id="Oval" stroke="#4865FF" cx="8.21053227" cy="1.45807656" rx="8.21053227" ry="1.45807656"></ellipse>
                        <ellipse id="Oval-Copy" fill="#4865FF" opacity="0.203999256" cx="9.63845093" cy="2.18711485" rx="8.21053227" ry="1.45807656"></ellipse>
                    </g>
                </g>
                <g id="Right" opacity="0.697102865" transform="translate(43.323077, 24.888889)">
                    <g id="Group" transform="translate(0.154941, 0.000000)">
                        <g id="Group-5" stroke="#4865FF">
                            <ellipse id="Oval" cx="9.23970102" cy="8.97624506" rx="9.23970102" ry="8.97624506"></ellipse>
                            <ellipse id="Oval" cx="9.23970102" cy="8.97624506" rx="4.02756198" ry="3.91272221"></ellipse>
                            <path d="M0.803561804,9.47624506 L9.23970102,26.6073065 L17.6758402,9.47624506 L0.803561804,9.47624506 Z" id="Rectangle"></path>
                        </g>
                        <g id="Group-5-Copy" opacity="0.19687035" transform="translate(0.393179, 0.784489)" fill="#4865FF">
                            <path d="M15.0373779,15.9658792 L9.23970102,27.7390798 L3.44202412,15.9658792 C1.34279294,14.3204418 -1.07291953e-12,11.8006852 -1.07291953e-12,8.97624506 C-1.07291953e-12,4.0188018 4.13675505,3.69482223e-13 9.23970102,3.69482223e-13 C14.342647,3.69482223e-13 18.479402,4.0188018 18.479402,8.97624506 C18.479402,11.8006852 17.1366091,14.3204418 15.0373779,15.9658792 Z M9.23970102,12.8889673 C11.4640621,12.8889673 13.267263,11.1371819 13.267263,8.97624506 C13.267263,6.81530826 11.4640621,5.06352286 9.23970102,5.06352286 C7.01533996,5.06352286 5.21213904,6.81530826 5.21213904,8.97624506 C5.21213904,11.1371819 7.01533996,12.8889673 9.23970102,12.8889673 Z" id="Combined-Shape"></path>
                        </g>
                    </g>
                    <g id="Shadow" transform="translate(5.078018, 30.854991)">
                        <ellipse id="Oval" stroke="#4865FF" cx="4.52923077" cy="0.66117837" rx="4.52923077" ry="1"></ellipse>
                        <ellipse id="Oval-Copy" fill="#4865FF" opacity="0.203999256" cx="5.31692308" cy="0.991767554" rx="4.52923077" ry="1"></ellipse>
                    </g>
                </g>
                <g id="Right-Copy" opacity="0.403767" transform="translate(0.000000, 24.888889)">
                    <g id="Group">
                        <g id="Group-5" stroke="#4865FF">
                            <ellipse id="Oval" cx="6.38648134" cy="6.48136632" rx="6.38648134" ry="6.48136632"></ellipse>
                            <ellipse id="Oval" cx="6.38648134" cy="6.48136632" rx="2.78385084" ry="2.82521096"></ellipse>
                            <path d="M0.78847119,6.98136632 L6.38648134,18.8566052 L11.9844915,6.98136632 L0.78847119,6.98136632 Z" id="Rectangle"></path>
                        </g>
                        <g id="Group-5-Copy" opacity="0.19687035" transform="translate(0.271765, 0.566447)" fill="#4865FF">
                            <path d="M10.3938356,11.528285 L6.38648134,20.0292144 L2.37912707,11.528285 C0.928138479,10.3401844 -1.07291953e-12,8.52077489 -1.07291953e-12,6.48136632 C-1.07291953e-12,2.90180654 2.85932509,3.69482223e-13 6.38648134,3.69482223e-13 C9.9136376,3.69482223e-13 12.7729627,2.90180654 12.7729627,6.48136632 C12.7729627,8.52077489 11.8448242,10.3401844 10.3938356,11.528285 Z M6.38648134,9.30657728 C7.92395971,9.30657728 9.17033219,8.04168725 9.17033219,6.48136632 C9.17033219,4.92104539 7.92395971,3.65615536 6.38648134,3.65615536 C4.84900298,3.65615536 3.6026305,4.92104539 3.6026305,6.48136632 C3.6026305,8.04168725 4.84900298,9.30657728 6.38648134,9.30657728 Z" id="Combined-Shape"></path>
                        </g>
                    </g>
                    <g id="Shadow" transform="translate(3.308308, 22.225319)">
                        <ellipse id="Oval" stroke="#4865FF" cx="3.29728" cy="0.455903988" rx="3.29728" ry="1"></ellipse>
                        <ellipse id="Oval-Copy" fill="#4865FF" opacity="0.203999256" cx="3.87072" cy="0.683855981" rx="3.29728" ry="1"></ellipse>
                    </g>
                </g>
            </g>
        </g>
    </g>
</svg>