<?xml version="1.0" encoding="UTF-8"?>
<svg width="1280px" height="482px" viewBox="0 0 1280 482" version="1.1" xmlns="http://www.w3.org/2000/svg" xmlns:xlink="http://www.w3.org/1999/xlink">
    <!-- Generator: Sketch 52.2 (67145) - http://www.bohemiancoding.com/sketch -->
    <title>Path 5</title>
    <desc>Created with Sketch.</desc>
    <defs>
        <linearGradient x1="50%" y1="100%" x2="50%" y2="3.061617e-15%" id="linearGradient-1">
            <stop stop-color="#FFFFFF" offset="0%"></stop>
            <stop stop-color="#00D09C" offset="100%"></stop>
        </linearGradient>
    </defs>
    <g id="Product-Pages" stroke="none" strokeWidth="1" fill="none" fill-rule="evenodd" opacity="0.20577567">
        <g id="Analytics" transform="translate(-80.000000, -473.000000)" fill="url(#linearGradient-1)">
            <path d="M123.585072,477.742664 C322.390048,610.93985 521.195024,677.538443 720,677.538443 C918.804977,677.538443 1117.60995,610.939849 1316.41493,477.742663 L1316.41493,477.742664 C1329.262,469.135267 1346.65428,472.572199 1355.26168,485.419268 C1358.35075,490.029904 1360,495.454531 1360,501.004338 L1360,927 C1360,942.463973 1347.46397,955 1332,955 L108,955 C92.536027,955 80,942.463973 80,927 L79.9999991,501.00434 C79.9999991,485.540367 92.5360265,473.004339 108,473.004339 C113.549807,473.004339 118.974435,474.653587 123.585072,477.742664 Z" id="Path-5"></path>
        </g>
    </g>
</svg>