<?xml version="1.0" encoding="UTF-8"?>
<svg width="43px" height="65px" viewBox="0 0 43 65" version="1.1" xmlns="http://www.w3.org/2000/svg" xmlns:xlink="http://www.w3.org/1999/xlink">
    <!-- Generator: Sketch 53.2 (72643) - https://sketchapp.com -->
    <title>Group 3 Copy 2</title>
    <desc>Created with Sketch.</desc>
    <g id="CTA-Flow" stroke="none" stroke-width="1" fill="none" fill-rule="evenodd">
        <g id="Desktop-HD-Copy-14" transform="translate(-373.000000, -327.000000)">
            <g id="Group-3-Copy-2" transform="translate(374.000000, 328.000000)">
                <g id="Group-2" stroke="#4865FF">
                    <ellipse id="Oval" cx="20.4324324" cy="20.2662027" rx="20.4324324" ry="20.2662027"></ellipse>
                    <ellipse id="Oval" cx="20.4324324" cy="20.2662027" rx="8.90644491" ry="8.83398579"></ellipse>
                    <path d="M0.796286842,20.7662027 L20.4324324,61.4772529 L40.068578,20.7662027 L0.796286842,20.7662027 Z" id="Rectangle"></path>
                </g>
                <g id="Group-2-Copy" opacity="0.199184268" transform="translate(0.756757, 1.497076)" fill="#4865FF">
                    <path d="M11.8536838,19.9399523 C11.8536838,24.8133299 15.8481234,28.763983 20.7755143,28.763983 C25.7029053,28.763983 29.6973449,24.8133299 29.6973449,19.9399523 C29.6973449,15.0665747 25.7029053,11.1159216 20.7755143,11.1159216 C15.8481234,11.1159216 11.8536838,15.0665747 11.8536838,19.9399523 Z M40.9332056,19.9399523 L41.2432432,19.9399523 L40.9326508,20.5820597 C40.8312952,26.6928766 37.9922306,32.1451716 33.5758186,35.7913043 L20.7755143,62.2541829 L8.34491637,36.5556215 C3.28386242,32.8702187 0,26.9360814 0,20.2433646 C0,9.06326303 9.16371438,2.55795385e-13 20.4677289,2.55795385e-13 C31.6693076,2.55795385e-13 40.7692007,8.89974651 40.9332056,19.9399523 Z" id="Combined-Shape"></path>
                </g>
            </g>
        </g>
    </g>
</svg>