<?xml version="1.0" encoding="UTF-8"?>
<svg width="137px" height="97px" viewBox="0 0 137 97" version="1.1" xmlns="http://www.w3.org/2000/svg" xmlns:xlink="http://www.w3.org/1999/xlink">
    <!-- Generator: Sketch 52.2 (67145) - http://www.bohemiancoding.com/sketch -->
    <title>Group</title>
    <desc>Created with Sketch.</desc>
    <g id="Symbols" stroke="none" strokeWidth="1" fill="none" fill-rule="evenodd">
        <g id="UI/Sections/Trust/Testimonial/VA" transform="translate(-709.000000, -332.000000)">
            <g id="“" transform="translate(80.000000, 104.000000)">
                <g id="Group" transform="translate(630.000000, 229.000000)">
                    <path d="M60.7433628,112 L0,112 L0,66.0196078 C0,49.0914186 3.5840553,35.7320751 10.7522734,25.9411765 C17.9204915,16.1502778 30.2086811,7.50330549 47.6172109,0 L60.7433628,24.4313725 C50.0375825,29.3725737 42.6367411,34.2908252 38.5406164,39.1862745 C34.4444918,44.0817238 32.1637293,49.8692476 31.6982606,56.5490196 L60.7433628,56.5490196 L60.7433628,112 Z M132,112 L71.2566372,112 L71.2566372,66.0196078 C71.2566372,49.0914186 74.8406925,35.7320751 82.0089106,25.9411765 C89.1771287,16.1502778 101.465318,7.50330549 118.873848,0 L132,24.4313725 C121.29422,29.3725737 113.893378,34.2908252 109.797254,39.1862745 C105.701129,44.0817238 103.420366,49.8692476 102.954898,56.5490196 L132,56.5490196 L132,112 Z" id="“" stroke="#4865FF"></path>
                    <path d="M64.7433628,116 L4,116 L4,70.0196078 C4,53.0914186 7.5840553,39.7320751 14.7522734,29.9411765 C21.9204915,20.1502778 34.2086811,11.5033055 51.6172109,4 L64.7433628,28.4313725 C54.0375825,33.3725737 46.6367411,38.2908252 42.5406164,43.1862745 C38.4444918,48.0817238 36.1637293,53.8692476 35.6982606,60.5490196 L64.7433628,60.5490196 L64.7433628,116 Z M136,116 L75.2566372,116 L75.2566372,70.0196078 C75.2566372,53.0914186 78.8406925,39.7320751 86.0089106,29.9411765 C93.1771287,20.1502778 105.465318,11.5033055 122.873848,4 L136,28.4313725 C125.29422,33.3725737 117.893378,38.2908252 113.797254,43.1862745 C109.701129,48.0817238 107.420366,53.8692476 106.954898,60.5490196 L136,60.5490196 L136,116 Z" id="“-copy" fill-opacity="0.1" fill="#4865FF"></path>
                </g>
            </g>
        </g>
    </g>
</svg>