<?xml version="1.0" encoding="UTF-8"?>
<svg width="24px" height="24px" viewBox="0 0 24 24" version="1.1" xmlns="http://www.w3.org/2000/svg" xmlns:xlink="http://www.w3.org/1999/xlink">
    <!-- Generator: Sketch 52.2 (67145) - http://www.bohemiancoding.com/sketch -->
    <title>tick</title>
    <desc>Created with Sketch.</desc>
    <g id="Audience-Pages" stroke="none" strokeWidth="1" fill="none" fillRule="evenodd">
        <g id="Enterprise" transform="translate(-159.000000, -359.000000)" fill="#FFFFFF">
            <g id="tick" transform="translate(159.000000, 359.000000)">
                <path d="M12,0 C5.38323959,0 0,5.38308629 0,11.9999374 C0,18.6167885 5.38323959,24 12,24 C18.6167604,24 24,18.6167885 24,11.9999374 C24,5.38308629 18.6168856,0 12,0 Z M18.8906118,9.973047 L11.3516221,17.5119974 C11.0310645,17.8325533 10.6049482,18.0089843 10.1516597,18.0089843 C9.69837112,18.0089843 9.27225486,17.8325533 8.95169722,17.5119974 L5.10938821,13.6697084 C4.78883057,13.3491524 4.61227343,12.9230384 4.61227343,12.4697522 C4.61227343,12.0163408 4.78883057,11.5902268 5.10938821,11.2696708 C5.42982063,10.9491149 5.85593689,10.7725587 6.30935064,10.7725587 C6.76263917,10.7725587 7.18888066,10.9491149 7.50931308,11.2697961 L10.1515344,13.9118784 L16.4904365,7.57300944 C16.8109941,7.25245347 17.2371104,7.07602248 17.6903989,7.07602248 C18.1436875,7.07602248 18.5698037,7.25245347 18.8903614,7.57300944 C19.5522628,8.23490742 19.5522628,9.31139946 18.8906118,9.973047 Z" id="Shape"></path>
            </g>
        </g>
    </g>
</svg>